<mxfile host="Electron" agent="Mozilla/5.0 (Windows NT 10.0; Win64; x64) AppleWebKit/537.36 (KHTML, like Gecko) draw.io/27.0.9 Chrome/134.0.6998.205 Electron/35.4.0 Safari/537.36" version="27.0.9">
  <diagram name="Page-1" id="pXB9CoqPIGeupnJhVFxW">
    <mxGraphModel dx="872" dy="571" grid="1" gridSize="10" guides="1" tooltips="1" connect="1" arrows="1" fold="1" page="1" pageScale="1" pageWidth="850" pageHeight="1100" math="0" shadow="0">
      <root>
        <mxCell id="0" />
        <mxCell id="1" parent="0" />
        <mxCell id="KnG4rFUmeMydKyy9aAMd-1" value="" style="rounded=0;whiteSpace=wrap;html=1;" vertex="1" parent="1">
          <mxGeometry x="400" y="20" width="120" height="300" as="geometry" />
        </mxCell>
        <mxCell id="KnG4rFUmeMydKyy9aAMd-2" value="&lt;div style=&quot;color: #3b3b3b;background-color: #ffffff;font-family: Consolas, &#39;Courier New&#39;, monospace;font-weight: normal;font-size: 14px;line-height: 19px;white-space: pre;&quot;&gt;&lt;div&gt;&lt;span style=&quot;color: #267f99;&quot;&gt;input&lt;/span&gt;&lt;span style=&quot;color: #3b3b3b;&quot;&gt; &amp;nbsp;&lt;/span&gt;&lt;span style=&quot;color: #0000ff;&quot;&gt;logic&lt;/span&gt;&lt;span style=&quot;color: #3b3b3b;&quot;&gt; &lt;/span&gt;&lt;span style=&quot;color: #001080;&quot;&gt;clk&lt;/span&gt;&lt;span style=&quot;color: #3b3b3b;&quot;&gt;,&lt;/span&gt;&lt;/div&gt;&lt;div&gt;&lt;span style=&quot;color: #267f99;&quot;&gt;input&lt;/span&gt;&lt;span style=&quot;color: #3b3b3b;&quot;&gt; &amp;nbsp;&lt;/span&gt;&lt;span style=&quot;color: #0000ff;&quot;&gt;logic&lt;/span&gt;&lt;span style=&quot;color: #3b3b3b;&quot;&gt; &lt;/span&gt;&lt;span style=&quot;color: #001080;&quot;&gt;rst_n&lt;/span&gt;&lt;span style=&quot;color: #3b3b3b;&quot;&gt;,&lt;/span&gt;&lt;/div&gt;&lt;div&gt;&lt;span style=&quot;color: #267f99;&quot;&gt;input&lt;/span&gt;&lt;span style=&quot;color: #3b3b3b;&quot;&gt; &amp;nbsp;&lt;/span&gt;&lt;span style=&quot;color: #0000ff;&quot;&gt;logic&lt;/span&gt;&lt;span style=&quot;color: #3b3b3b;&quot;&gt; &lt;/span&gt;&lt;span style=&quot;color: #001080;&quot;&gt;coin_5&lt;/span&gt;&lt;span style=&quot;color: #3b3b3b;&quot;&gt;,&lt;/span&gt;&lt;/div&gt;&lt;div&gt;&lt;span style=&quot;color: #008000;&quot;&gt;// 5-cent coin inserted&lt;/span&gt;&lt;/div&gt;&lt;div&gt;&lt;span style=&quot;color: #267f99;&quot;&gt;input&lt;/span&gt;&lt;span style=&quot;color: #3b3b3b;&quot;&gt; &amp;nbsp;&lt;/span&gt;&lt;span style=&quot;color: #0000ff;&quot;&gt;logic&lt;/span&gt;&lt;span style=&quot;color: #3b3b3b;&quot;&gt; &lt;/span&gt;&lt;span style=&quot;color: #001080;&quot;&gt;coin_10&lt;/span&gt;&lt;span style=&quot;color: #3b3b3b;&quot;&gt;, &lt;/span&gt;&lt;span style=&quot;color: #008000;&quot;&gt;// 10-cent coin inserted&lt;/span&gt;&lt;/div&gt;&lt;div&gt;&lt;span style=&quot;color: #267f99;&quot;&gt;input&lt;/span&gt;&lt;span style=&quot;color: #3b3b3b;&quot;&gt; &amp;nbsp;&lt;/span&gt;&lt;span style=&quot;color: #0000ff;&quot;&gt;logic&lt;/span&gt;&lt;span style=&quot;color: #3b3b3b;&quot;&gt; &lt;/span&gt;&lt;span style=&quot;color: #001080;&quot;&gt;coin_25&lt;/span&gt;&lt;span style=&quot;color: #3b3b3b;&quot;&gt;, &lt;/span&gt;&lt;span style=&quot;color: #008000;&quot;&gt;// 25-cent coin inserted&lt;/span&gt;&lt;/div&gt;&lt;div&gt;&lt;span style=&quot;color: #267f99;&quot;&gt;input&lt;/span&gt;&lt;span style=&quot;color: #3b3b3b;&quot;&gt; &amp;nbsp;&lt;/span&gt;&lt;span style=&quot;color: #0000ff;&quot;&gt;logic&lt;/span&gt;&lt;span style=&quot;color: #3b3b3b;&quot;&gt; &lt;/span&gt;&lt;span style=&quot;color: #001080;&quot;&gt;coin_return&lt;/span&gt;&lt;span style=&quot;color: #3b3b3b;&quot;&gt;,&lt;/span&gt;&lt;/div&gt;&lt;div&gt;&lt;span style=&quot;color: #267f99;&quot;&gt;output&lt;/span&gt;&lt;span style=&quot;color: #3b3b3b;&quot;&gt; &lt;/span&gt;&lt;span style=&quot;color: #0000ff;&quot;&gt;logic&lt;/span&gt;&lt;span style=&quot;color: #3b3b3b;&quot;&gt; &lt;/span&gt;&lt;span style=&quot;color: #001080;&quot;&gt;dispense_item&lt;/span&gt;&lt;span style=&quot;color: #3b3b3b;&quot;&gt;,&lt;/span&gt;&lt;/div&gt;&lt;div&gt;&lt;span style=&quot;color: #267f99;&quot;&gt;output&lt;/span&gt;&lt;span style=&quot;color: #3b3b3b;&quot;&gt; &lt;/span&gt;&lt;span style=&quot;color: #0000ff;&quot;&gt;logic&lt;/span&gt;&lt;span style=&quot;color: #3b3b3b;&quot;&gt; &lt;/span&gt;&lt;span style=&quot;color: #001080;&quot;&gt;return_5&lt;/span&gt;&lt;span style=&quot;color: #3b3b3b;&quot;&gt;, &lt;/span&gt;&lt;span style=&quot;color: #008000;&quot;&gt;// Return 5-cent&lt;/span&gt;&lt;/div&gt;&lt;div&gt;&lt;span style=&quot;color: #267f99;&quot;&gt;output&lt;/span&gt;&lt;span style=&quot;color: #3b3b3b;&quot;&gt; &lt;/span&gt;&lt;span style=&quot;color: #0000ff;&quot;&gt;logic&lt;/span&gt;&lt;span style=&quot;color: #3b3b3b;&quot;&gt; &lt;/span&gt;&lt;span style=&quot;color: #001080;&quot;&gt;return_10&lt;/span&gt;&lt;span style=&quot;color: #3b3b3b;&quot;&gt;, &lt;/span&gt;&lt;span style=&quot;color: #008000;&quot;&gt;// Return 10-cent&lt;/span&gt;&lt;/div&gt;&lt;div&gt;&lt;span style=&quot;color: #267f99;&quot;&gt;output&lt;/span&gt;&lt;span style=&quot;color: #3b3b3b;&quot;&gt; &lt;/span&gt;&lt;span style=&quot;color: #0000ff;&quot;&gt;logic&lt;/span&gt;&lt;span style=&quot;color: #3b3b3b;&quot;&gt; &lt;/span&gt;&lt;span style=&quot;color: #001080;&quot;&gt;return_25&lt;/span&gt;&lt;span style=&quot;color: #3b3b3b;&quot;&gt;, &lt;/span&gt;&lt;span style=&quot;color: #008000;&quot;&gt;// Return 25-cent&lt;/span&gt;&lt;/div&gt;&lt;div&gt;&lt;span style=&quot;color: #267f99;&quot;&gt;output&lt;/span&gt;&lt;span style=&quot;color: #3b3b3b;&quot;&gt; &lt;/span&gt;&lt;span style=&quot;color: #0000ff;&quot;&gt;display&lt;/span&gt;&lt;span style=&quot;color: #3b3b3b;&quot;&gt; [&lt;/span&gt;&lt;span style=&quot;color: #098658;&quot;&gt;5&lt;/span&gt;&lt;span style=&quot;color: #000000;&quot;&gt;:&lt;/span&gt;&lt;span style=&quot;color: #098658;&quot;&gt;0&lt;/span&gt;&lt;span style=&quot;color: #3b3b3b;&quot;&gt;] &lt;/span&gt;&lt;span style=&quot;color: #001080;&quot;&gt;amount_display&lt;/span&gt;&lt;/div&gt;&lt;/div&gt;" style="text;whiteSpace=wrap;html=1;" vertex="1" parent="1">
          <mxGeometry x="120" y="450" width="390" height="250" as="geometry" />
        </mxCell>
        <mxCell id="KnG4rFUmeMydKyy9aAMd-3" value="" style="endArrow=classic;html=1;rounded=0;" edge="1" parent="1">
          <mxGeometry width="50" height="50" relative="1" as="geometry">
            <mxPoint x="200" y="40" as="sourcePoint" />
            <mxPoint x="400" y="40" as="targetPoint" />
          </mxGeometry>
        </mxCell>
        <mxCell id="KnG4rFUmeMydKyy9aAMd-13" value="&lt;span style=&quot;color: rgb(0, 16, 128); font-family: Consolas, &amp;quot;Courier New&amp;quot;, monospace; font-size: 14px; text-align: left; white-space-collapse: preserve;&quot;&gt;clk&lt;/span&gt;" style="edgeLabel;html=1;align=center;verticalAlign=middle;resizable=0;points=[];" vertex="1" connectable="0" parent="KnG4rFUmeMydKyy9aAMd-3">
          <mxGeometry x="0.15" y="4" relative="1" as="geometry">
            <mxPoint y="-6" as="offset" />
          </mxGeometry>
        </mxCell>
        <mxCell id="KnG4rFUmeMydKyy9aAMd-4" value="" style="endArrow=classic;html=1;rounded=0;" edge="1" parent="1">
          <mxGeometry width="50" height="50" relative="1" as="geometry">
            <mxPoint x="200" y="80" as="sourcePoint" />
            <mxPoint x="400" y="80" as="targetPoint" />
          </mxGeometry>
        </mxCell>
        <mxCell id="KnG4rFUmeMydKyy9aAMd-14" value="&lt;span style=&quot;color: rgb(0, 16, 128); font-family: Consolas, &amp;quot;Courier New&amp;quot;, monospace; font-size: 14px; text-align: left; white-space-collapse: preserve;&quot;&gt;rst_n&lt;/span&gt;" style="edgeLabel;html=1;align=center;verticalAlign=middle;resizable=0;points=[];" vertex="1" connectable="0" parent="KnG4rFUmeMydKyy9aAMd-4">
          <mxGeometry x="0.14" y="2" relative="1" as="geometry">
            <mxPoint x="1" y="-8" as="offset" />
          </mxGeometry>
        </mxCell>
        <mxCell id="KnG4rFUmeMydKyy9aAMd-5" value="" style="endArrow=classic;html=1;rounded=0;" edge="1" parent="1">
          <mxGeometry width="50" height="50" relative="1" as="geometry">
            <mxPoint x="200" y="120" as="sourcePoint" />
            <mxPoint x="400" y="120" as="targetPoint" />
          </mxGeometry>
        </mxCell>
        <mxCell id="KnG4rFUmeMydKyy9aAMd-6" value="" style="endArrow=classic;html=1;rounded=0;" edge="1" parent="1">
          <mxGeometry width="50" height="50" relative="1" as="geometry">
            <mxPoint x="200" y="160" as="sourcePoint" />
            <mxPoint x="400" y="160" as="targetPoint" />
          </mxGeometry>
        </mxCell>
        <mxCell id="KnG4rFUmeMydKyy9aAMd-7" value="" style="endArrow=classic;html=1;rounded=0;" edge="1" parent="1">
          <mxGeometry width="50" height="50" relative="1" as="geometry">
            <mxPoint x="200" y="200" as="sourcePoint" />
            <mxPoint x="400" y="200" as="targetPoint" />
          </mxGeometry>
        </mxCell>
        <mxCell id="KnG4rFUmeMydKyy9aAMd-8" value="" style="endArrow=classic;html=1;rounded=0;" edge="1" parent="1">
          <mxGeometry width="50" height="50" relative="1" as="geometry">
            <mxPoint x="200" y="240" as="sourcePoint" />
            <mxPoint x="400" y="240" as="targetPoint" />
          </mxGeometry>
        </mxCell>
        <mxCell id="KnG4rFUmeMydKyy9aAMd-9" value="" style="endArrow=classic;html=1;rounded=0;" edge="1" parent="1">
          <mxGeometry width="50" height="50" relative="1" as="geometry">
            <mxPoint x="520" y="40" as="sourcePoint" />
            <mxPoint x="720" y="40" as="targetPoint" />
          </mxGeometry>
        </mxCell>
        <mxCell id="KnG4rFUmeMydKyy9aAMd-10" value="" style="endArrow=classic;html=1;rounded=0;" edge="1" parent="1">
          <mxGeometry width="50" height="50" relative="1" as="geometry">
            <mxPoint x="520" y="80" as="sourcePoint" />
            <mxPoint x="720" y="80" as="targetPoint" />
          </mxGeometry>
        </mxCell>
        <mxCell id="KnG4rFUmeMydKyy9aAMd-11" value="" style="endArrow=classic;html=1;rounded=0;" edge="1" parent="1">
          <mxGeometry width="50" height="50" relative="1" as="geometry">
            <mxPoint x="520" y="120" as="sourcePoint" />
            <mxPoint x="720" y="120" as="targetPoint" />
          </mxGeometry>
        </mxCell>
        <mxCell id="KnG4rFUmeMydKyy9aAMd-12" value="" style="endArrow=classic;html=1;rounded=0;" edge="1" parent="1">
          <mxGeometry width="50" height="50" relative="1" as="geometry">
            <mxPoint x="520" y="160" as="sourcePoint" />
            <mxPoint x="720" y="160" as="targetPoint" />
          </mxGeometry>
        </mxCell>
      </root>
    </mxGraphModel>
  </diagram>
</mxfile>
